<svg xmlns="http://www.w3.org/2000/svg" width="28" height="28" viewBox="0 0 28 28">
  <metadata><?xpacket begin="﻿" id="W5M0MpCehiHzreSzNTczkc9d"?>
<x:xmpmeta xmlns:x="adobe:ns:meta/" x:xmptk="Adobe XMP Core 5.6-c140 79.160451, 2017/05/06-01:08:21        ">
   <rdf:RDF xmlns:rdf="http://www.w3.org/1999/02/22-rdf-syntax-ns#">
      <rdf:Description rdf:about=""/>
   </rdf:RDF>
</x:xmpmeta>
                                                                                                    
                                                                                                    
                                                                                                    
                                                                                                    
                                                                                                    
                                                                                                    
                                                                                                    
                                                                                                    
                                                                                                    
                                                                                                    
                                                                                                    
                                                                                                    
                                                                                                    
                                                                                                    
                                                                                                    
                                                                                                    
                                                                                                    
                                                                                                    
                                                                                                    
                                                                                                    
                           
<?xpacket end="w"?></metadata>
<defs>
    <style>
      .cls-1 {
        fill: #3d454a;
        fill-rule: evenodd;
      }
    </style>
  </defs>
  <path id="Elipse_2_copia_8" data-name="Elipse 2 copia 8" class="cls-1" d="M82.688,106A3.688,3.688,0,1,1,79,109.687,3.687,3.687,0,0,1,82.688,106ZM93,106a3.688,3.688,0,1,1-3.687,3.687A3.687,3.687,0,0,1,93,106Zm10.313,0a3.688,3.688,0,1,1-3.688,3.687A3.687,3.687,0,0,1,103.313,106ZM82.688,116.312A3.688,3.688,0,1,1,79,120,3.688,3.688,0,0,1,82.688,116.312Zm10.313,0A3.688,3.688,0,1,1,89.313,120,3.688,3.688,0,0,1,93,116.312Zm10.313,0A3.688,3.688,0,1,1,99.625,120,3.688,3.688,0,0,1,103.313,116.312ZM82.688,126.625A3.688,3.688,0,1,1,79,130.312,3.687,3.687,0,0,1,82.688,126.625Zm10.313,0a3.688,3.688,0,1,1-3.687,3.687A3.687,3.687,0,0,1,93,126.625Zm10.313,0a3.688,3.688,0,1,1-3.688,3.687A3.687,3.687,0,0,1,103.313,126.625Z" transform="translate(-79 -106)"/>
</svg>
